<svg xmlns="http://www.w3.org/2000/svg" viewBox="0 0 240 240" role="img" aria-label="Caixa de medicamento">
  <defs>
    <radialGradient id="bg" cx="42%" cy="30%" r="74%">
      <stop offset="0" stop-color="#ffffff"/>
      <stop offset=".55" stop-color="#eef9f5"/>
      <stop offset="1" stop-color="#c9e5dc"/>
    </radialGradient>
    <linearGradient id="front" x1="37" y1="71" x2="160" y2="153" gradientUnits="userSpaceOnUse">
      <stop offset="0" stop-color="#ffffff"/>
      <stop offset=".58" stop-color="#f9fcfb"/>
      <stop offset="1" stop-color="#e5efeb"/>
    </linearGradient>
    <linearGradient id="side" x1="158" y1="77" x2="204" y2="153" gradientUnits="userSpaceOnUse">
      <stop offset="0" stop-color="#d6e9e1"/>
      <stop offset="1" stop-color="#9ebfb3"/>
    </linearGradient>
    <linearGradient id="band" x1="37" y1="101" x2="162" y2="132" gradientUnits="userSpaceOnUse">
      <stop offset="0" stop-color="#ff8f1c"/>
      <stop offset=".52" stop-color="#f26322"/>
      <stop offset="1" stop-color="#de3728"/>
    </linearGradient>
    <filter id="shadow" x="-22%" y="-24%" width="146%" height="156%">
      <feDropShadow dx="0" dy="14" stdDeviation="11" flood-color="#123d2e" flood-opacity=".24"/>
    </filter>
    <filter id="soft" x="-18%" y="-18%" width="136%" height="142%">
      <feDropShadow dx="0" dy="8" stdDeviation="6" flood-color="#123d2e" flood-opacity=".17"/>
    </filter>
  </defs>

  <circle cx="120" cy="120" r="112" fill="url(#bg)"/>
  <ellipse cx="121" cy="188" rx="78" ry="14" fill="#0b583c" opacity=".12"/>

  <g transform="translate(0 3) rotate(-6 120 120)" filter="url(#soft)">
    <rect x="143" y="102" width="55" height="89" rx="15" fill="#eef5f2"/>
    <rect x="150" y="110" width="41" height="73" rx="11" fill="#ffffff"/>
    <g fill="#f7fbff" stroke="#afc4cf" stroke-width="2.2">
      <circle cx="163" cy="126" r="8.6"/>
      <circle cx="180" cy="126" r="8.6"/>
      <circle cx="163" cy="149" r="8.6"/>
      <circle cx="180" cy="149" r="8.6"/>
      <circle cx="163" cy="171" r="8.6"/>
      <circle cx="180" cy="171" r="8.6"/>
    </g>
  </g>

  <g transform="translate(7 7) rotate(-7 111 109)" filter="url(#shadow)">
    <path d="M39 67h123l37 27v72l-37 17H39z" fill="url(#front)"/>
    <path d="M162 67l37 27v72l-37 17z" fill="url(#side)"/>
    <path d="M39 67h123l37 27H76z" fill="#ffffff"/>
    <path d="M39 102h123l37 27v27H39z" fill="url(#band)"/>
    <path d="M162 102l37 27v27l-37-8z" fill="#c83325" opacity=".78"/>
    <path d="M57 82h64" stroke="#007a50" stroke-width="8" stroke-linecap="round"/>
    <path d="M58 156h75" stroke="#b8d5cb" stroke-width="7" stroke-linecap="round"/>
    <path d="M58 171h52" stroke="#dce9e4" stroke-width="7" stroke-linecap="round"/>
    <rect x="127" y="78" width="31" height="23" rx="5" fill="#e9f7f2"/>
    <path d="M142.5 84v11M137 89.5h11" stroke="#007a50" stroke-width="4.2" stroke-linecap="round"/>
    <text x="58" y="129" fill="#fff" font-family="Arial, Helvetica, sans-serif" font-size="27" font-weight="900">MED</text>
    <text x="58" y="143" fill="#fff" font-family="Arial, Helvetica, sans-serif" font-size="10" font-weight="800" opacity=".9">uso adulto</text>
    <path d="M162 67v116" stroke="#85aa9d" stroke-width="1.4" opacity=".46"/>
  </g>
</svg>
