<svg xmlns="http://www.w3.org/2000/svg" viewBox="0 0 240 240" role="img" aria-label="Top ofertas">
  <defs>
    <linearGradient id="offer-bg" x1="30" y1="28" x2="210" y2="212" gradientUnits="userSpaceOnUse">
      <stop offset="0" stop-color="#fff6e9"/>
      <stop offset="1" stop-color="#eaf8f1"/>
    </linearGradient>
    <linearGradient id="offer-tag" x1="54" y1="62" x2="174" y2="184" gradientUnits="userSpaceOnUse">
      <stop offset="0" stop-color="#ff8f1c"/>
      <stop offset="1" stop-color="#e43d30"/>
    </linearGradient>
    <filter id="soft-shadow" x="-20%" y="-20%" width="140%" height="140%">
      <feDropShadow dx="0" dy="12" stdDeviation="10" flood-color="#075f3f" flood-opacity=".16"/>
    </filter>
  </defs>
  <circle cx="120" cy="120" r="110" fill="url(#offer-bg)"/>
  <g filter="url(#soft-shadow)">
    <path d="M62 83c0-10 8-18 18-18h54c6 0 12 2 16 7l31 31c7 7 7 18 0 25l-59 59c-7 7-18 7-25 0l-31-31c-4-4-7-10-7-16V83Z" fill="url(#offer-tag)"/>
    <circle cx="90" cy="93" r="12" fill="#fff4de"/>
    <path d="M100 153 146 99" fill="none" stroke="#fff" stroke-width="12" stroke-linecap="round"/>
    <circle cx="99" cy="113" r="13" fill="#fff"/>
    <circle cx="148" cy="139" r="13" fill="#fff"/>
    <path d="M80 74c12-23 42-31 66-16" fill="none" stroke="#075f3f" stroke-width="8" stroke-linecap="round"/>
  </g>
  <g fill="#075f3f">
    <circle cx="183" cy="70" r="8"/>
    <circle cx="47" cy="151" r="6"/>
    <circle cx="176" cy="184" r="5"/>
  </g>
  <path d="M46 115h28M60 101v28" stroke="#39896a" stroke-width="7" stroke-linecap="round"/>
</svg>
