<svg xmlns="http://www.w3.org/2000/svg" viewBox="0 0 320 320" role="img" aria-label="Vida saudável">
  <defs>
    <linearGradient id="wellBg" x1="40" y1="20" x2="280" y2="300" gradientUnits="userSpaceOnUse">
      <stop stop-color="#e9fff0"/>
      <stop offset=".48" stop-color="#c8f0d8"/>
      <stop offset="1" stop-color="#fff1bd"/>
    </linearGradient>
    <linearGradient id="wellSkin" x1="122" y1="74" x2="200" y2="226" gradientUnits="userSpaceOnUse">
      <stop stop-color="#f4b18a"/>
      <stop offset="1" stop-color="#c77855"/>
    </linearGradient>
    <filter id="softShadow" x="-20%" y="-20%" width="140%" height="140%">
      <feDropShadow dx="0" dy="10" stdDeviation="10" flood-color="#1d5a3f" flood-opacity=".22"/>
    </filter>
  </defs>
  <rect width="320" height="320" fill="url(#wellBg)"/>
  <circle cx="260" cy="66" r="54" fill="#fff8d9" opacity=".72"/>
  <circle cx="62" cy="248" r="64" fill="#9addb4" opacity=".35"/>
  <path d="M20 210c60-24 112-21 154 7s83 27 126-4v107H20z" fill="#ffffff" opacity=".42"/>
  <g filter="url(#softShadow)">
    <path d="M142 99c-22 9-43 37-50 78l31 6c5-30 14-50 30-60z" fill="#208862"/>
    <path d="M176 96c23 7 47 32 61 72l-29 12c-12-28-26-48-44-56z" fill="#208862"/>
    <path d="M126 236c13-41 25-72 39-96l30 10c-12 25-17 56-19 92z" fill="#2f6fbe"/>
    <path d="M168 238c-1-41 4-72 16-94l31 7c-3 29 3 56 22 86z" fill="#145d9a"/>
    <path d="M134 118c6-24 45-30 64-8 14 17 15 39 4 52-13 16-54 16-70-1-10-11-6-29 2-43z" fill="#3bb77e"/>
    <circle cx="166" cy="77" r="31" fill="url(#wellSkin)"/>
    <path d="M134 72c12-33 67-27 67 12-19 5-45-3-67-12z" fill="#40312a"/>
    <path d="M124 88c3 26 20 38 42 42-24 7-52-9-56-34z" fill="#40312a"/>
    <path d="M66 238c9-17 29-24 47-16 15 7 23 23 22 38H56c0-8 3-16 10-22z" fill="#ff8f1c"/>
    <circle cx="94" cy="229" r="20" fill="#ffcc56"/>
    <circle cx="119" cy="240" r="13" fill="#e15f37"/>
    <rect x="218" y="208" width="38" height="68" rx="12" fill="#ffffff"/>
    <rect x="227" y="220" width="20" height="44" rx="8" fill="#79c8e8"/>
    <rect x="223" y="199" width="28" height="14" rx="5" fill="#53a475"/>
  </g>
</svg>
