<svg xmlns="http://www.w3.org/2000/svg" viewBox="0 0 320 320" role="img" aria-label="Higiene pessoal">
  <defs>
    <linearGradient id="hygBg" x1="28" y1="18" x2="288" y2="312" gradientUnits="userSpaceOnUse">
      <stop stop-color="#f0fbff"/>
      <stop offset=".48" stop-color="#cfeef8"/>
      <stop offset="1" stop-color="#f7fff9"/>
    </linearGradient>
    <filter id="hygShadow" x="-20%" y="-20%" width="140%" height="140%">
      <feDropShadow dx="0" dy="12" stdDeviation="11" flood-color="#2f7087" flood-opacity=".2"/>
    </filter>
  </defs>
  <rect width="320" height="320" fill="url(#hygBg)"/>
  <circle cx="75" cy="80" r="56" fill="#ffffff" opacity=".6"/>
  <circle cx="262" cy="236" r="72" fill="#d9f4e7" opacity=".42"/>
  <path d="M0 224c52-24 104-25 155-4 60 25 101 15 165-24v124H0z" fill="#ffffff" opacity=".4"/>
  <g filter="url(#hygShadow)">
    <rect x="62" y="218" width="204" height="54" rx="24" fill="#ffffff"/>
    <rect x="92" y="119" width="48" height="116" rx="18" fill="#ffffff"/>
    <rect x="101" y="143" width="30" height="70" rx="12" fill="#63c3df"/>
    <rect x="100" y="93" width="32" height="34" rx="11" fill="#3b7d9a"/>
    <rect x="165" y="86" width="34" height="152" rx="14" fill="#ffffff"/>
    <rect x="174" y="103" width="16" height="94" rx="8" fill="#ff8f1c"/>
    <rect x="158" y="75" width="50" height="22" rx="9" fill="#81d0e2"/>
    <rect x="216" y="131" width="34" height="98" rx="14" transform="rotate(10 233 180)" fill="#ffffff"/>
    <rect x="224" y="149" width="18" height="51" rx="8" transform="rotate(10 233 174)" fill="#9ad76d"/>
    <path d="M58 170c33-20 68-20 100 0" fill="none" stroke="#ffffff" stroke-width="24" stroke-linecap="round"/>
    <path d="M58 170c33-20 68-20 100 0" fill="none" stroke="#3b7d9a" stroke-width="8" stroke-linecap="round"/>
    <path d="M70 153c24-9 47-9 70 0" fill="none" stroke="#ff8f1c" stroke-width="7" stroke-linecap="round"/>
    <circle cx="244" cy="94" r="22" fill="#ffffff"/>
    <path d="M236 94h16M244 86v16" stroke="#3b7d9a" stroke-width="7" stroke-linecap="round"/>
  </g>
</svg>
