<svg xmlns="http://www.w3.org/2000/svg" viewBox="0 0 240 240" role="img" aria-label="Primeiros socorros">
  <defs>
    <radialGradient id="bg" cx="50%" cy="42%" r="72%">
      <stop offset="0" stop-color="#ffffff"/>
      <stop offset=".58" stop-color="#f7fbfd"/>
      <stop offset="1" stop-color="#e7f4f7"/>
    </radialGradient>
    <filter id="shadow" x="-20%" y="-20%" width="140%" height="150%">
      <feDropShadow dx="0" dy="8" stdDeviation="7" flood-color="#53717a" flood-opacity=".22"/>
    </filter>
    <filter id="soft" x="-25%" y="-25%" width="150%" height="150%">
      <feDropShadow dx="0" dy="5" stdDeviation="4" flood-color="#53717a" flood-opacity=".16"/>
    </filter>
  </defs>

  <circle cx="120" cy="120" r="112" fill="url(#bg)"/>

  <g filter="url(#soft)" opacity=".95">
    <g transform="translate(23 41) rotate(-17 29 33)">
      <rect x="0" y="0" width="45" height="58" rx="8" fill="#d8ecf4"/>
      <rect x="9" y="8" width="27" height="42" rx="5" fill="#c5e0eb"/>
      <circle cx="23" cy="29" r="13" fill="#e34d55"/>
      <path d="M23 20v18M14 29h18" stroke="#fff" stroke-width="6" stroke-linecap="round"/>
      <path d="M11 46h24" stroke="#9cc1ce" stroke-width="3" stroke-linecap="round"/>
    </g>

    <g transform="translate(156 38) rotate(31 26 10)">
      <rect x="0" y="0" width="54" height="18" rx="9" fill="#f5d095"/>
      <rect x="18" y="-18" width="18" height="54" rx="9" fill="#f4cb89"/>
      <rect x="16" y="4" width="22" height="10" rx="3" fill="#ffe7be"/>
      <g fill="#fff0c9" opacity=".65">
        <circle cx="9" cy="6" r="1.4"/>
        <circle cx="45" cy="12" r="1.4"/>
        <circle cx="28" cy="-8" r="1.4"/>
        <circle cx="27" cy="28" r="1.4"/>
      </g>
    </g>

    <g transform="translate(177 86) rotate(-54 11 48)">
      <rect x="0" y="0" width="22" height="94" rx="11" fill="#bcb2be"/>
      <rect x="6" y="17" width="10" height="36" rx="3" fill="#f0e9ef"/>
      <rect x="5" y="57" width="12" height="23" rx="3" fill="#466f61"/>
      <path d="M8 61h6M8 67h6M8 73h6" stroke="#8cc0a7" stroke-width="1.6"/>
      <path d="M6 8c4-5 11-5 15 0" stroke="#fff" stroke-width="3" stroke-linecap="round" opacity=".65"/>
    </g>

    <g transform="translate(160 128) rotate(-35 31 8)">
      <rect x="0" y="0" width="67" height="16" rx="8" fill="#9edcf7"/>
      <rect x="9" y="-7" width="42" height="30" rx="5" fill="#dff4ff" stroke="#75badf" stroke-width="2"/>
      <path d="M16-2v21M24-2v21M32-2v21M40-2v21" stroke="#86bdd7" stroke-width="1.5"/>
      <rect x="51" y="3" width="17" height="10" rx="5" fill="#6fb8dd"/>
      <path d="M68 8h26" stroke="#7abfe1" stroke-width="2.2" stroke-linecap="round"/>
    </g>

    <g transform="translate(25 142) rotate(-9 26 30)">
      <rect x="0" y="0" width="51" height="61" rx="7" fill="#9ba0aa"/>
      <rect x="31" y="-4" width="33" height="65" rx="7" fill="#8f95a0"/>
      <g fill="#ffe981" stroke="#d4c36d" stroke-width="2">
        <circle cx="13" cy="14" r="7"/>
        <circle cx="35" cy="12" r="7"/>
        <circle cx="13" cy="34" r="7"/>
        <circle cx="35" cy="32" r="7"/>
        <circle cx="13" cy="53" r="7"/>
        <circle cx="35" cy="52" r="7"/>
      </g>
      <g fill="#ffe9ec" stroke="#d3c6ca" stroke-width="2">
        <circle cx="51" cy="13" r="7"/>
        <circle cx="51" cy="34" r="7"/>
        <circle cx="51" cy="54" r="7"/>
      </g>
    </g>
  </g>

  <g filter="url(#shadow)">
    <rect x="62" y="118" width="116" height="66" rx="11" fill="#f8c8cd"/>
    <rect x="69" y="127" width="102" height="48" rx="8" fill="#ffd9dc"/>
    <rect x="86" y="111" width="11" height="23" rx="5" fill="#7d8798"/>
    <rect x="143" y="111" width="11" height="23" rx="5" fill="#7d8798"/>
    <rect x="85" y="179" width="13" height="10" rx="3" fill="#6b7587"/>
    <rect x="142" y="179" width="13" height="10" rx="3" fill="#6b7587"/>
    <circle cx="120" cy="151" r="33" fill="#e45157"/>
    <path d="M120 132v38M101 151h38" stroke="#fff" stroke-width="12" stroke-linecap="round"/>
  </g>

  <g filter="url(#soft)">
    <g transform="translate(91 40) rotate(-4 19 45)">
      <rect x="0" y="0" width="38" height="91" rx="13" fill="#7bbbd8" opacity=".82"/>
      <rect x="7" y="7" width="24" height="77" rx="8" fill="#98d3eb" opacity=".82"/>
      <rect x="0" y="36" width="38" height="19" rx="4" fill="#e85056"/>
      <path d="M19 40v11M13 45.5h12" stroke="#fff" stroke-width="4" stroke-linecap="round"/>
      <g fill="#ffffff" opacity=".58">
        <ellipse cx="12" cy="18" rx="5" ry="8"/>
        <ellipse cx="25" cy="24" rx="5" ry="8"/>
        <ellipse cx="17" cy="67" rx="5" ry="8"/>
        <ellipse cx="27" cy="73" rx="5" ry="8"/>
      </g>
      <rect x="-2" y="-5" width="42" height="13" rx="5" fill="#d3474f"/>
    </g>

    <g transform="translate(113 197) rotate(-8 31 9)">
      <rect x="0" y="0" width="62" height="18" rx="9" fill="#efcb8d"/>
      <rect x="22" y="4" width="24" height="10" rx="3" fill="#ffe5b9"/>
    </g>

    <g transform="translate(47 206) rotate(9)">
      <rect x="0" y="0" width="28" height="12" rx="6" fill="#d94f56"/>
      <rect x="14" y="0" width="14" height="12" rx="6" fill="#fff0ee"/>
    </g>
  </g>
</svg>
