<svg xmlns="http://www.w3.org/2000/svg" viewBox="0 0 320 220" role="img" aria-label="Produtos de primeiros socorros">
  <rect width="320" height="220" rx="22" fill="#fff8f2"/>
  <ellipse cx="158" cy="184" rx="108" ry="17" fill="#f1dfd0"/>
  <rect x="40" y="72" width="74" height="52" rx="15" fill="#ffcfb8" stroke="#c95432" stroke-width="4" transform="rotate(-10 77 98)"/>
  <rect x="70" y="78" width="15" height="40" rx="4" fill="#fff"/>
  <rect x="58" y="90" width="40" height="15" rx="4" fill="#fff"/>
  <rect x="140" y="54" width="58" height="118" rx="14" fill="#fff" stroke="#006747" stroke-width="4"/>
  <rect x="151" y="78" width="36" height="46" rx="7" fill="#e53935"/>
  <text x="169" y="106" font-family="Arial" font-size="18" font-weight="700" text-anchor="middle" fill="#fff">+</text>
  <rect x="218" y="72" width="56" height="96" rx="12" fill="#e8f7ff" stroke="#2d91b8" stroke-width="4"/>
  <path d="M231 92h30M231 112h30M231 132h30" stroke="#2d91b8" stroke-width="5" stroke-linecap="round"/>
  <rect x="87" y="142" width="62" height="22" rx="11" fill="#f3e0c8"/>
  <rect x="96" y="148" width="44" height="10" rx="5" fill="#fff"/>
</svg>
