<svg xmlns="http://www.w3.org/2000/svg" viewBox="0 0 360 260" role="img" aria-labelledby="title desc">
  <title id="title">Imagem demonstrativa de medicamento</title>
  <desc id="desc">Caixa branca de medicamento com tarja vermelha e cartela de comprimidos ao lado.</desc>
  <defs>
    <linearGradient id="boxSide" x1="0" x2="1" y1="0" y2="1">
      <stop offset="0" stop-color="#fff"/>
      <stop offset="1" stop-color="#e9ece9"/>
    </linearGradient>
    <linearGradient id="foil" x1="0" x2="1" y1="0" y2="1">
      <stop offset="0" stop-color="#f7f8f6"/>
      <stop offset=".55" stop-color="#c8ceca"/>
      <stop offset="1" stop-color="#f2f3f0"/>
    </linearGradient>
    <filter id="shadow" x="-20%" y="-20%" width="140%" height="140%">
      <feDropShadow dx="0" dy="12" stdDeviation="11" flood-color="#26352e" flood-opacity=".18"/>
    </filter>
  </defs>

  <g filter="url(#shadow)">
    <path d="M89 36h111l25 16v166H89z" fill="url(#boxSide)"/>
    <path d="M89 36h111l-14 14H76z" fill="#f7f8f5"/>
    <path d="M76 50h110v168H76z" fill="#fff"/>
    <path d="M76 103h110v60H76z" fill="#df2f24"/>
    <path d="M86 75h82" stroke="#dfe5e0" stroke-width="7" stroke-linecap="round"/>
    <path d="M91 85h62" stroke="#edf1ed" stroke-width="5" stroke-linecap="round"/>
    <text x="131" y="125" fill="#fff" font-family="Arial, Helvetica, sans-serif" font-size="13" font-weight="800" text-anchor="middle">VENDA SOB</text>
    <text x="131" y="144" fill="#fff" font-family="Arial, Helvetica, sans-serif" font-size="13" font-weight="800" text-anchor="middle">PRESCRIÇÃO</text>
    <g transform="translate(102 184)">
      <circle cx="14" cy="14" r="13" fill="#ff8f1c"/>
      <path d="M8 17c4-10 18-10 22 0" fill="#0f6f4b"/>
      <path d="M12 10c1-5 11-5 12 0" fill="none" stroke="#26352e" stroke-width="2" stroke-linecap="round"/>
      <text x="35" y="19" fill="#0f6f4b" font-family="Arial, Helvetica, sans-serif" font-size="15" font-weight="800">Onório</text>
    </g>
  </g>

  <g transform="translate(195 51)" filter="url(#shadow)">
    <rect x="0" y="0" width="72" height="172" rx="14" fill="url(#foil)"/>
    <path d="M12 10h48M12 162h48" stroke="#dde2dd" stroke-width="3" stroke-linecap="round"/>
    <g fill="#fff" stroke="#c6ccc7" stroke-width="3">
      <circle cx="36" cy="29" r="17"/>
      <circle cx="36" cy="63" r="17"/>
      <circle cx="36" cy="97" r="17"/>
      <circle cx="36" cy="131" r="17"/>
    </g>
    <g stroke="#e6ebe7" stroke-width="2" stroke-linecap="round">
      <path d="M28 24l16 10"/>
      <path d="M26 62h20"/>
      <path d="M28 103l16-12"/>
      <path d="M29 126l14 11"/>
    </g>
  </g>
</svg>
