<svg xmlns="http://www.w3.org/2000/svg" viewBox="0 0 360 170" role="img" aria-label="Caixa de medicamento genérica">
  <defs>
    <linearGradient id="frontOrange" x1="0" x2="1" y1="0" y2="1">
      <stop offset="0" stop-color="#ffffff"/>
      <stop offset="1" stop-color="#fff4e8"/>
    </linearGradient>
    <linearGradient id="sideOrange" x1="0" x2="1">
      <stop offset="0" stop-color="#ffe0bd"/>
      <stop offset="1" stop-color="#f6b06c"/>
    </linearGradient>
    <filter id="shadowOrange" x="-20%" y="-25%" width="140%" height="160%">
      <feDropShadow dx="0" dy="12" stdDeviation="12" flood-color="#2d2926" flood-opacity=".18"/>
    </filter>
  </defs>
  <g filter="url(#shadowOrange)" transform="translate(16 18)">
    <path d="M26 30h224l68 22v76H94l-68-20z" fill="url(#frontOrange)"/>
    <path d="M250 30l68 22v76l-68-20z" fill="url(#sideOrange)"/>
    <path d="M26 30h224l68 22H94z" fill="#fffaf4"/>
    <path d="M46 56h226v44H46z" fill="#ff8f1c"/>
    <path d="M272 56l34 11v44l-34-11z" fill="#d96d00"/>
    <path d="M62 40h98" stroke="#f4c999" stroke-width="9" stroke-linecap="round"/>
    <path d="M62 120h84" stroke="#f2d5b6" stroke-width="8" stroke-linecap="round"/>
    <path d="M174 120h48" stroke="#f2d5b6" stroke-width="8" stroke-linecap="round"/>
    <path d="M58 69h82" stroke="#ffffff" stroke-width="8" stroke-linecap="round"/>
    <path d="M58 86h124" stroke="#ffffff" stroke-width="7" stroke-linecap="round" opacity=".92"/>
    <rect x="220" y="64" width="38" height="24" rx="12" fill="#0b7753"/>
    <path d="M230 76h18" stroke="#fff" stroke-width="6" stroke-linecap="round"/>
  </g>
</svg>
