<svg xmlns="http://www.w3.org/2000/svg" viewBox="0 0 520 560" role="img" aria-label="Embalagem generica de medicamento">
  <rect width="520" height="560" fill="none"/>
  <ellipse cx="250" cy="515" rx="155" ry="20" fill="#d8d8d8" opacity=".75"/>
  <g transform="translate(310 112)">
    <rect x="0" y="0" width="112" height="346" rx="22" fill="#cfcfcf"/>
    <g fill="#ffffff" stroke="#a9a9a9" stroke-width="5">
      <circle cx="56" cy="48" r="31"/>
      <circle cx="56" cy="118" r="31"/>
      <circle cx="56" cy="188" r="31"/>
      <circle cx="56" cy="258" r="31"/>
    </g>
    <g stroke="#d9d9d9" stroke-width="5" stroke-linecap="round">
      <path d="M42 34l28 28M42 104l28 28M42 174l28 28M42 244l28 28"/>
    </g>
  </g>
  <g transform="translate(94 38)">
    <path d="M55 0h194l24 36v55H31V36Z" fill="#f4f4f2" stroke="#d6d6d3" stroke-width="5"/>
    <path d="M31 36h242l-24 25H55Z" fill="#ffffff"/>
    <path d="M31 61h242v396H31Z" fill="#f8f8f6" stroke="#d6d6d3" stroke-width="5"/>
    <rect x="31" y="205" width="242" height="112" fill="#d82712"/>
    <text x="152" y="251" text-anchor="middle" font-family="Arial, sans-serif" font-size="22" font-weight="800" fill="#ffffff">VENDA SOB</text>
    <text x="152" y="282" text-anchor="middle" font-family="Arial, sans-serif" font-size="22" font-weight="800" fill="#ffffff">PRESCRICAO</text>
    <text x="152" y="313" text-anchor="middle" font-family="Arial, sans-serif" font-size="22" font-weight="800" fill="#ffffff">MEDICA</text>
    <g transform="translate(80 376)">
      <circle cx="28" cy="28" r="25" fill="#ff8f1c"/>
      <path d="M14 50c7-21 30-21 38 0" fill="#39896a"/>
      <path d="M16 28c5-17 19-24 31-11 7 7 5 21-2 27-10 9-26 2-29-16Z" fill="#ffd0a4" stroke="#2d2926" stroke-width="4"/>
      <path d="M67 20h63M67 45h95" stroke="#39896a" stroke-width="13" stroke-linecap="round"/>
      <text x="68" y="75" font-family="Arial, sans-serif" font-size="15" font-weight="800" fill="#ff8f1c">DROGARIA</text>
      <text x="67" y="99" font-family="Arial, sans-serif" font-size="26" font-weight="900" fill="#39896a">ONORIO</text>
    </g>
  </g>
</svg>
