<svg xmlns="http://www.w3.org/2000/svg" viewBox="0 0 420 520" role="img" aria-label="Agua mineral 500ml">
  <rect width="420" height="520" fill="none"/>
  <ellipse cx="210" cy="472" rx="90" ry="18" fill="#d8edf8"/>
  <path d="M168 86h84l-9 54 22 42c9 17 14 36 14 55v169c0 36-29 66-65 66h-8c-36 0-65-30-65-66V237c0-19 5-38 14-55l22-42-9-54Z" fill="#dff3fb" stroke="#8ccce1" stroke-width="8"/>
  <path d="M177 35h66c8 0 15 7 15 15v36H162V50c0-8 7-15 15-15Z" fill="#3ba7d9"/>
  <path d="M166 62h88" stroke="#eaf8fc" stroke-width="9" stroke-linecap="round"/>
  <path d="M151 243h118v125H151z" fill="#ffffff" stroke="#9cd9ed" stroke-width="6"/>
  <path d="M166 270h88" stroke="#278bbb" stroke-width="9" stroke-linecap="round"/>
  <path d="M171 297h78" stroke="#7ac7e4" stroke-width="8" stroke-linecap="round"/>
  <path d="M184 327h52" stroke="#278bbb" stroke-width="7" stroke-linecap="round"/>
  <path d="M195 175c-28 56-20 142-18 210" fill="none" stroke="#ffffff" stroke-width="13" stroke-linecap="round" opacity=".72"/>
  <path d="M242 184c16 34 18 70 18 100" fill="none" stroke="#bfeaf6" stroke-width="10" stroke-linecap="round"/>
  <text x="210" y="288" text-anchor="middle" font-family="Arial, sans-serif" font-size="29" font-weight="800" fill="#237499">Agua</text>
  <text x="210" y="323" text-anchor="middle" font-family="Arial, sans-serif" font-size="21" font-weight="700" fill="#237499">mineral</text>
  <text x="210" y="349" text-anchor="middle" font-family="Arial, sans-serif" font-size="16" font-weight="700" fill="#62aac8">500ml</text>
</svg>
